<svg width="44" height="58" viewBox="0 0 44 58" fill="none" xmlns="http://www.w3.org/2000/svg">
    <path d="M15 0.719605C15 0.322178 15.3223 -0.000932739 15.7196 0.00892752C19.9207 0.113192 24.0522 1.12945 27.8264 2.99069C31.8159 4.9581 35.2993 7.81689 38.0072 11.3459C40.7152 14.8749 42.575 18.9796 43.4428 23.3424C44.3106 27.7052 44.1631 32.2091 43.0118 36.5058C41.8606 40.8024 39.7363 44.7767 36.8034 48.121C33.8704 51.4654 30.2075 54.0902 26.0978 55.7925C21.9882 57.4948 17.542 58.2288 13.1033 57.9379C8.90412 57.6627 4.81808 56.4771 1.12762 54.4668C0.778617 54.2767 0.661083 53.8357 0.859797 53.4915C1.05851 53.1474 1.49819 53.0303 1.84745 53.22C5.34653 55.1202 9.21854 56.241 13.1974 56.5018C17.4159 56.7783 21.6414 56.0806 25.5471 54.4629C29.4527 52.8451 32.9339 50.3505 35.7213 47.1721C38.5087 43.9937 40.5275 40.2167 41.6217 36.1333C42.7158 32.0498 42.856 27.7694 42.0312 23.6232C41.2065 19.4769 39.439 15.5759 36.8654 12.2221C34.2919 8.86817 30.9813 6.15125 27.1898 4.28148C23.6136 2.51788 19.6999 1.55255 15.7196 1.4486C15.3223 1.43823 15 1.11703 15 0.719605Z" fill="white"/>
</svg>
