<svg width="58" height="58" viewBox="0 0 58 58" fill="none" xmlns="http://www.w3.org/2000/svg">
    <path opacity="0.4" d="M29 0.719605C29 0.322178 29.3223 -0.000932236 29.7196 0.00892663C35.2036 0.145009 40.5422 1.83422 45.1115 4.88738C49.8806 8.07394 53.5976 12.6031 55.7925 17.9022C57.9874 23.2012 58.5617 29.0322 57.4428 34.6576C56.3238 40.2831 53.5618 45.4504 49.5061 49.5061C45.4504 53.5618 40.2831 56.3238 34.6576 57.4428C29.0322 58.5617 23.2012 57.9874 17.9022 55.7925C12.6031 53.5976 8.07394 49.8806 4.88738 45.1115C1.83422 40.5422 0.145009 35.2036 0.00892659 29.7196C-0.000932253 29.3223 0.322178 29 0.719605 29C1.11703 29 1.43823 29.3223 1.4486 29.7196C1.58436 34.9189 3.18903 39.9793 6.08404 44.312C9.11246 48.8443 13.4169 52.3768 18.4529 54.4628C23.489 56.5489 29.0306 57.0947 34.3768 56.0312C39.7231 54.9678 44.634 52.3429 48.4884 48.4884C52.3429 44.634 54.9678 39.7231 56.0312 34.3768C57.0947 29.0306 56.5489 23.489 54.4628 18.4529C52.3768 13.4169 48.8443 9.11246 44.312 6.08404C39.9793 3.18903 34.9189 1.58436 29.7196 1.4486C29.3223 1.43823 29 1.11703 29 0.719605Z" fill="white"/>
</svg>
