<svg width="32" height="32" viewBox="0 0 32 32" fill="none" xmlns="http://www.w3.org/2000/svg">
    <path d="M28 16.5652V14.6665C28 11.4839 26.7357 8.43166 24.4853 6.18122C22.2348 3.93079 19.1826 2.6665 16 2.6665C12.8174 2.6665 9.76516 3.93079 7.51472 6.18122C5.26429 8.43166 4.00001 11.4839 4.00001 14.6665V16.5652C2.60155 17.1809 1.45707 18.2584 0.758167 19.6173C0.0592622 20.9761 -0.151647 22.5337 0.160749 24.0295C0.473144 25.5252 1.28988 26.8683 2.47423 27.8338C3.65858 28.7993 5.13865 29.3286 6.66667 29.3332C7.37392 29.3332 8.05219 29.0522 8.55229 28.5521C9.05239 28.052 9.33334 27.3737 9.33334 26.6665V18.6665C9.33334 17.9593 9.05239 17.281 8.55229 16.7809C8.05219 16.2808 7.37392 15.9998 6.66667 15.9998V14.6665C6.66667 12.1912 7.65 9.81718 9.40034 8.06684C11.1507 6.3165 13.5247 5.33317 16 5.33317C18.4754 5.33317 20.8493 6.3165 22.5997 8.06684C24.35 9.81718 25.3333 12.1912 25.3333 14.6665V15.9998C24.6261 15.9998 23.9478 16.2808 23.4477 16.7809C22.9476 17.281 22.6667 17.9593 22.6667 18.6665V26.6665H18.6667C18.3131 26.6665 17.9739 26.807 17.7239 27.057C17.4738 27.3071 17.3333 27.6462 17.3333 27.9998C17.3333 28.3535 17.4738 28.6926 17.7239 28.9426C17.9739 29.1927 18.3131 29.3332 18.6667 29.3332H25.3333C26.8614 29.3286 28.3414 28.7993 29.5258 27.8338C30.7101 26.8683 31.5269 25.5252 31.8393 24.0295C32.1517 22.5337 31.9407 20.9761 31.2418 19.6173C30.5429 18.2584 29.3985 17.1809 28 16.5652ZM6.66667 26.6665C5.60581 26.6665 4.58839 26.2451 3.83824 25.4949C3.0881 24.7448 2.66667 23.7274 2.66667 22.6665C2.66667 21.6056 3.0881 20.5882 3.83824 19.8381C4.58839 19.0879 5.60581 18.6665 6.66667 18.6665V26.6665ZM25.3333 26.6665V18.6665C26.3942 18.6665 27.4116 19.0879 28.1618 19.8381C28.9119 20.5882 29.3333 21.6056 29.3333 22.6665C29.3333 23.7274 28.9119 24.7448 28.1618 25.4949C27.4116 26.2451 26.3942 26.6665 25.3333 26.6665Z" fill="white"/>
</svg>
